<svg id="Layer_1" enable-background="new 0 0 512 512" height="512" viewBox="0 0 512 512" width="512" xmlns="http://www.w3.org/2000/svg"><g><g><g><circle cx="256" cy="256" fill="#2d4456" r="248"/></g><path d="m256 486c-133.952 0-243.081-106.205-247.82-239-.107 2.989-.18 5.986-.18 9 0 136.967 111.033 248 248 248s248-111.033 248-248c0-3.014-.073-6.011-.18-9-4.739 132.795-113.868 239-247.82 239z" fill="#253847"/><path d="m502.518 228.88c-4.687-43.08-20.39-82.851-44.257-116.421l-97.227-2.908-41.804-93.405c-20.187-5.307-41.376-8.146-63.23-8.146s-43.043 2.839-63.23 8.146l-41.803 93.405-97.227 2.908c-23.868 33.57-39.572 73.341-44.258 116.421l72.675 73.291-29.193 96.252c27.18 38.676 65.129 69.226 109.491 87.309l93.545-46.317 93.545 46.316c44.363-18.083 82.311-48.633 109.492-87.309l-29.193-96.252zm-246.518 131.2-93.596-68.001 35.751-110.028h115.69l35.75 110.028z" fill="#e4eef9"/><g fill="#d5e0f2"><path d="m56.807 385.75-3.844 12.673c27.18 38.676 65.129 69.226 109.491 87.309l21.159-10.476c-51.307-15.635-95.558-47.448-126.806-89.506z"/><path d="m328.386 475.255 21.159 10.476c44.363-18.083 82.311-48.633 109.492-87.309l-3.844-12.673c-31.248 42.059-75.499 73.872-126.807 89.506z"/></g></g><g><path d="m437.02 74.981c-48.353-48.352-112.64-74.981-181.02-74.981-48.003 0-94.799 13.367-135.33 38.655-3.522 2.197-4.595 6.833-2.398 10.354 2.198 3.521 6.833 4.594 10.353 2.397 15.906-9.924 32.841-17.889 50.454-23.813l-33.254 74.301-77.004 2.303c10.61-13.044 22.651-25.095 36.053-35.899 3.231-2.605 3.739-7.336 1.134-10.567-2.604-3.231-7.336-3.738-10.566-1.134-60.654 48.899-95.442 121.579-95.442 199.403 0 68.38 26.628 132.667 74.98 181.02 48.353 48.351 112.639 74.98 181.02 74.98 53.477 0 104.703-16.32 148.145-47.196 3.383-2.405 4.176-7.096 1.772-10.479-2.404-3.382-7.094-4.178-10.478-1.771-14.308 10.169-29.517 18.654-45.398 25.397l-86.526-42.841v-70.997l88.276-64.136 72.617 9.132 26.776 88.284c-9.686 13.348-20.761 25.707-33.163 36.98-3.07 2.792-3.297 7.544-.506 10.615 2.797 3.078 7.552 3.292 10.615.507 26.147-23.764 46.755-52.072 61.252-84.138 15.008-33.195 22.618-68.642 22.618-105.357 0-68.38-26.628-132.667-74.98-181.019zm6.145 29.216-76.991-2.302-33.293-74.389c34.841 11.687 66.767 31.359 93.512 58.103 5.946 5.946 11.534 12.154 16.772 18.588zm-245.149-82.123c18.85-4.657 38.308-7.044 57.984-7.044 19.793 0 39.218 2.379 57.957 6.985l38.751 86.582-42.826 65.794h-107.765l-42.826-65.794zm-51.251 94.828 43.021 66.096-33.237 102.292-72.001 9.055-67.661-68.236c4.76-38.523 18.664-74.94 40.411-106.53zm-131.5 128.914 58.061 58.553-23.306 76.839c-22.796-37.349-34.991-80.339-34.991-125.208 0-3.407.095-6.799.236-10.184zm45.554 151.567 26.774-88.274 72.617-9.132 88.276 64.136v70.997l-86.566 42.861c-28.157-11.938-54.034-29.302-76.312-51.579-9.098-9.097-17.363-18.803-24.789-29.009zm269.93 87.787c-23.902 7.787-49.047 11.801-74.749 11.801-25.787 0-50.952-4.033-74.786-11.783l74.786-37.028zm24.702-199.881-11.943-36.757c-1.282-3.948-5.524-6.107-9.469-4.824-3.947 1.282-6.108 5.522-4.825 9.469l11.731 36.102-84.945 61.716-84.945-61.716 32.447-99.859h104.996l11.408 35.108c1.283 3.948 5.527 6.107 9.469 4.824 3.947-1.282 6.108-5.522 4.825-9.469l-11.986-36.886 43.021-66.096 89.46 2.675c21.872 31.713 35.716 68.056 40.447 106.501l-67.691 68.265zm120.236 69.876c-4.064 8.989-8.65 17.656-13.721 25.999l-23.291-76.794 58.07-58.563c.14 3.387.226 6.783.226 10.193 0 34.566-7.161 67.929-21.284 99.165z"/></g></g></svg>